Master sorcerer Balthazar Blake recruits a seemingly everyday guy in his mission to defend New York City from his arch-nemesis, Maxim Horvath. 

Cast


Nicolas Cage 	... 	Balthazar Blake
Jay Baruchel 	... 	Dave
Alfred Molina 	... 	Maxim Horvath
Teresa Palmer 	... 	Becky Barnes
Toby Kebbell 	... 	Drake Stone
Omar Benson Miller 	... 	Bennet
Monica Bellucci 	... 	Veronica 


Video

ID                               : 0

Format                           : MPEG-4 Visual

Format profile                   : Advanced Simple@L5

Format settings, BVOP            : Yes

Format settings, QPel            : No

Format settings, GMC             : No warppoints

Format settings, Matrix          : Default (H.263)

Muxing mode                      : Packed bitstream

Codec ID                         : XVID

Codec ID/Hint                    : XviD

Duration                         : 1h 39mn

Bit rate                         : 839 Kbps

Width                            : 624 pixels

Height                           : 296 pixels

Display aspect ratio             : 2.2:1

Frame rate                       : 25.000 fps

Color space                      : YUV

Chroma subsampling               : 4:2:0

Bit depth                        : 8 bits

Scan type                        : Progressive

Bits/(Pixel*Frame)               : 0.182

Stream size                      : 595 MiB (86%)

Writing library                  : XviD 1.1.2 (UTC 2006-11-01)



Audio

ID                               : 1

Format                           : MPEG Audio

Format version                   : Version 1

Format profile                   : Layer 3

Codec ID                         : 55

Codec ID/Hint                    : MP3

Duration                         : 1h 38mn

Bit rate mode                    : Constant

Bit rate                         : 128 Kbps

Channel(s)                       : 2 channels

Sampling rate                    : 44.1 KHz

Video delay                      : 22ms

Stream size                      : 90.2 MiB (13%)

Alignment                        : Split accross interleaves

Interleave, duration             : 40 ms (1.01 video frame)

Interleave, preload duration     : 500 ms



Release Notes:

       Thanx to both sources. Pretty straight forward remux here. Swapped one audio for

       another. Audio is decent and video is a turkish DvBRip and is decent as well, but has some noise at times. Enjoi



Screens:

 
http://bayimg.com/OaalIaadF.jpg
 
http://bayimg.com/oaAllaADF.jpg
 
http://bayimg.com/OAAlMaADF.jpg



Enjoy Another Quality Release... :)